<svg width="48" height="48" viewBox="0 0 48 48" fill="none" xmlns="http://www.w3.org/2000/svg">
<path fill-rule="evenodd" clip-rule="evenodd" d="M13.1578 8.36541e-06C13.2161 1.24526e-05 13.2746 1.65398e-05 13.3333 1.65398e-05L34.8422 8.36541e-06C37.2062 -0.000162478 39.243 -0.00030922 40.8741 0.281641C42.6221 0.583807 44.2977 1.26522 45.6568 3.01263C47.0159 4.76004 47.5459 6.91439 47.7809 9.16187C48.0002 11.259 48.0001 13.8778 48 16.9172V31.0828C48.0001 34.1222 48.0002 36.741 47.7809 38.8381C47.5459 41.0856 47.0159 43.24 45.6568 44.9874C44.2977 46.7348 42.6221 47.4162 40.8741 47.7184C39.243 48.0003 37.2062 48.0002 34.8422 48H13.1578C10.7938 48.0002 8.75699 48.0003 7.1259 47.7184C5.37786 47.4162 3.70226 46.7348 2.34316 44.9874C0.984059 43.24 0.454072 41.0856 0.219054 38.8381C-0.000240505 36.741 -0.000126372 34.1222 6.50643e-06 31.0828L1.28643e-05 17.1429C1.28643e-05 17.0674 9.68535e-06 16.9921 6.50643e-06 16.9172C-0.000126372 13.8778 -0.000240505 11.259 0.219054 9.16187C0.454072 6.91439 0.984059 4.76004 2.34316 3.01263C3.70226 1.26522 5.37786 0.583807 7.1259 0.281641C8.75699 -0.00030922 10.7938 -0.000162478 13.1578 8.36541e-06ZM7.83655 7.07763C6.67991 7.27757 6.31739 7.60036 6.11439 7.86136C5.91139 8.12236 5.66033 8.58846 5.50483 10.0756C5.33901 11.6613 5.33334 13.8135 5.33334 17.1429V30.8571C5.33334 34.1865 5.33901 36.3387 5.50483 37.9244C5.66033 39.4115 5.91139 39.8776 6.11439 40.1386C6.31739 40.3996 6.67991 40.7224 7.83655 40.9224C9.0699 41.1356 10.7438 41.1428 13.3333 41.1428H34.6667C37.2562 41.1428 38.9301 41.1356 40.1634 40.9224C41.3201 40.7224 41.6826 40.3996 41.8856 40.1386C42.0886 39.8776 42.3397 39.4115 42.4952 37.9244C42.661 36.3387 42.6667 34.1865 42.6667 30.8571V17.1429C42.6667 13.8135 42.661 11.6613 42.4952 10.0756C42.3397 8.58846 42.0886 8.12236 41.8856 7.86136C41.6826 7.60036 41.3201 7.27757 40.1634 7.07763C38.9301 6.86444 37.2562 6.85715 34.6667 6.85715H13.3333C10.7438 6.85715 9.0699 6.86444 7.83655 7.07763Z" fill="#255289"/>
<path fill-rule="evenodd" clip-rule="evenodd" d="M20.5058 28.8805L2 16.3229L4.32945 10L22.8353 22.5577C23.5685 23.0552 24.4315 23.0552 25.1647 22.5577L43.6705 10L46 16.3229L27.4942 28.8805C25.2945 30.3732 22.7055 30.3732 20.5058 28.8805Z" fill="#255289"/>
</svg>
