<svg width="84" height="79" viewBox="0 0 84 79" fill="none" xmlns="http://www.w3.org/2000/svg">
<rect x="8.80005" y="5.79999" width="47.8481" height="45" rx="22.5" fill="#303030"/>
<path d="M28.1676 55.3714C28.0023 55.3715 27.843 55.3128 27.7218 55.2071C27.6006 55.1014 27.5264 54.9565 27.5141 54.8015C27.5075 54.7206 27.518 54.6394 27.5449 54.5624C27.5717 54.4854 27.6145 54.4141 27.6707 54.3527C27.7268 54.2912 27.7954 54.2408 27.8723 54.2043C27.9492 54.1677 28.0331 54.1459 28.119 54.1398L77.5195 50.6458L82.5661 20.9884H18.3796C18.0168 20.9884 17.7233 20.7125 17.7233 20.3714C17.7233 20.2903 17.7402 20.21 17.7732 20.1351C17.8062 20.0603 17.8545 19.9922 17.9155 19.9349C17.9764 19.8776 18.0488 19.8321 18.1284 19.8012C18.2081 19.7702 18.2934 19.7543 18.3796 19.7543H83.3349C83.4298 19.7544 83.5236 19.7738 83.6098 19.8113C83.696 19.8487 83.7725 19.9033 83.8342 19.9712C83.8958 20.0391 83.941 20.1188 83.9668 20.2047C83.9925 20.2907 83.9981 20.3808 83.9833 20.469L78.7344 51.3221C78.7108 51.4592 78.6388 51.5849 78.53 51.6789C78.4212 51.7729 78.2819 51.8297 78.1346 51.8402L28.2174 55.3702C28.2009 55.3714 28.1841 55.3714 28.1676 55.3714ZM25.5962 55.5438C25.4519 55.5438 25.3117 55.499 25.1973 55.4164C25.0828 55.3338 25.0006 55.218 24.9633 55.0869L10.5287 4.48757C10.5063 4.40932 10.5006 4.32768 10.5118 4.24733C10.523 4.16699 10.5509 4.08951 10.594 4.01933C10.6371 3.94915 10.6945 3.88765 10.7628 3.83834C10.8312 3.78903 10.9093 3.75289 10.9925 3.73198C11.3425 3.64526 11.7024 3.83814 11.7959 4.16818L26.2303 54.7678C26.2526 54.8461 26.2583 54.9277 26.2471 55.008C26.2359 55.0884 26.2079 55.1658 26.1649 55.236C26.1218 55.3062 26.0645 55.3677 25.9961 55.417C25.9277 55.4663 25.8497 55.5025 25.7665 55.5234C25.7109 55.5372 25.6537 55.544 25.5962 55.5438Z" fill="url(#paint0_linear_16_65)"/>
<path d="M28.168 55.3739C28.0238 55.3739 27.8836 55.3291 27.7692 55.2465C27.6548 55.164 27.5725 55.0482 27.5351 54.9172L12.3931 2.0199C12.3504 1.86262 12.3753 1.69586 12.4625 1.55573C12.5496 1.41561 12.6919 1.31341 12.8586 1.27126C13.0252 1.22911 13.2029 1.25042 13.353 1.33056C13.5031 1.4107 13.6135 1.54322 13.6605 1.69943L28.8023 54.5966C28.8474 54.7547 28.824 54.9232 28.7371 55.0651C28.6503 55.2069 28.5072 55.3106 28.3391 55.3534C28.2833 55.3673 28.2258 55.3742 28.168 55.3739ZM11.1623 4.94491H1.97676C1.89059 4.94497 1.80524 4.92905 1.72562 4.89806C1.64599 4.86708 1.57363 4.82163 1.5127 4.76432C1.45176 4.70701 1.40344 4.63897 1.37049 4.56408C1.33754 4.48919 1.32061 4.40892 1.32068 4.32788C1.32064 4.24683 1.33758 4.16658 1.37053 4.0917C1.40349 4.01682 1.45181 3.94878 1.51275 3.89148C1.57368 3.83417 1.64602 3.78872 1.72564 3.75773C1.80526 3.72673 1.89059 3.7108 1.97676 3.71084H11.1623C11.2485 3.7108 11.3338 3.72673 11.4134 3.75773C11.493 3.78872 11.5654 3.83417 11.6263 3.89148C11.6872 3.94878 11.7356 4.01682 11.7685 4.0917C11.8015 4.16658 11.8184 4.24683 11.8184 4.32788C11.8184 4.40892 11.8015 4.48917 11.7685 4.56405C11.7356 4.63893 11.6872 4.70697 11.6263 4.76427C11.5654 4.82158 11.493 4.86703 11.4134 4.89802C11.3338 4.92902 11.2485 4.94495 11.1623 4.94491Z" fill="url(#paint1_linear_16_65)"/>
<path d="M13.0269 2.47677H1.97676C1.89059 2.47681 1.80526 2.46088 1.72564 2.42989C1.64602 2.39889 1.57368 2.35344 1.51275 2.29614C1.45181 2.23884 1.40349 2.1708 1.37053 2.09592C1.33758 2.02104 1.32064 1.94078 1.32068 1.85974C1.32068 1.51859 1.61402 1.24255 1.97676 1.24255H13.027C13.1132 1.24251 13.1986 1.25845 13.2782 1.28945C13.3578 1.32046 13.4302 1.36592 13.4911 1.42324C13.552 1.48056 13.6004 1.54862 13.6333 1.62352C13.6663 1.69842 13.6832 1.77869 13.6831 1.85974C13.6831 1.94078 13.6661 2.02103 13.6332 2.09591C13.6002 2.17078 13.5518 2.23881 13.4909 2.2961C13.43 2.3534 13.3576 2.39885 13.278 2.42985C13.1984 2.46085 13.113 2.47679 13.0269 2.47677Z" fill="url(#paint2_linear_16_65)"/>
<path d="M1.97648 4.94491C0.891041 4.94491 0.00805664 4.11448 0.00805664 3.09381C0.00805664 2.07298 0.891041 1.24255 1.97648 1.24255C2.06266 1.24251 2.14801 1.25845 2.22764 1.28945C2.30727 1.32046 2.37962 1.36592 2.44056 1.42324C2.50149 1.48056 2.54981 1.54862 2.58276 1.62352C2.6157 1.69842 2.63263 1.77869 2.63256 1.85974C2.63261 1.94078 2.61567 2.02104 2.58271 2.09592C2.54975 2.1708 2.50143 2.23884 2.4405 2.29614C2.37957 2.35344 2.30722 2.39889 2.2276 2.42989C2.14798 2.46088 2.06265 2.47681 1.97648 2.47677C1.8025 2.47686 1.63567 2.54189 1.51265 2.65759C1.38963 2.77329 1.32048 2.93019 1.32039 3.09381C1.32052 3.25742 1.38969 3.41429 1.5127 3.52998C1.63571 3.64567 1.80251 3.71072 1.97648 3.71084C2.06265 3.7108 2.14798 3.72673 2.2276 3.75773C2.30722 3.78872 2.37957 3.83417 2.4405 3.89148C2.50143 3.94878 2.54975 4.01682 2.58271 4.0917C2.61567 4.16658 2.63261 4.24683 2.63256 4.32787C2.63261 4.40892 2.61567 4.48917 2.58271 4.56405C2.54975 4.63893 2.50143 4.70697 2.4405 4.76427C2.37957 4.82158 2.30722 4.86703 2.2276 4.89802C2.14798 4.92902 2.06265 4.94495 1.97648 4.94491ZM78.0856 28.3932H24.7328C24.6466 28.3933 24.5613 28.3774 24.4816 28.3464C24.402 28.3154 24.3297 28.2699 24.2687 28.2126C24.2078 28.1553 24.1595 28.0873 24.1265 28.0124C24.0936 27.9375 24.0766 27.8573 24.0767 27.7762C24.0766 27.6952 24.0936 27.6149 24.1265 27.54C24.1595 27.4652 24.2078 27.3971 24.2687 27.3398C24.3297 27.2825 24.402 27.2371 24.4816 27.2061C24.5613 27.1751 24.6466 27.1591 24.7328 27.1592H78.0856C78.4483 27.1592 78.7418 27.4351 78.7418 27.7762C78.7419 27.8573 78.7249 27.9375 78.6919 28.0124C78.659 28.0873 78.6106 28.1554 78.5497 28.2127C78.4887 28.27 78.4164 28.3154 78.3367 28.3464C78.2571 28.3774 78.1717 28.3933 78.0856 28.3932ZM75.4612 37.032H28.6694C28.3069 37.032 28.0134 36.7561 28.0134 36.415C28.0134 36.0738 28.3069 35.798 28.6694 35.798H75.4612C75.824 35.798 76.1173 36.0738 76.1173 36.415C76.1173 36.7561 75.824 37.032 75.4612 37.032ZM72.8367 45.6709H31.294C31.2078 45.671 31.1224 45.655 31.0428 45.624C30.9632 45.593 30.8908 45.5476 30.8299 45.4903C30.7689 45.4329 30.7206 45.3649 30.6877 45.29C30.6547 45.2151 30.6378 45.1348 30.6379 45.0538C30.6378 44.9727 30.6548 44.8925 30.6877 44.8176C30.7207 44.7427 30.769 44.6747 30.8299 44.6174C30.8909 44.5601 30.9632 44.5146 31.0428 44.4836C31.1225 44.4526 31.2078 44.4367 31.294 44.4367H72.8367C72.9229 44.4367 73.0082 44.4526 73.0878 44.4836C73.1675 44.5146 73.2398 44.5601 73.3007 44.6174C73.3617 44.6747 73.41 44.7427 73.4429 44.8176C73.4759 44.8925 73.4928 44.9727 73.4928 45.0538C73.4928 45.3949 73.1995 45.6709 72.8367 45.6709ZM24.2837 62.9486C24.1852 62.9488 24.0879 62.9278 23.9992 62.8872C23.9216 62.8521 23.8522 62.803 23.7948 62.7426C23.7374 62.6822 23.6933 62.6117 23.6649 62.5352C23.6366 62.4588 23.6245 62.3778 23.6294 62.297C23.6344 62.2161 23.6562 62.137 23.6938 62.0641L27.5779 54.4893C27.7348 54.1833 28.1271 54.0554 28.4539 54.2014C28.6105 54.2727 28.7307 54.3995 28.788 54.5541C28.8453 54.7086 28.835 54.8782 28.7594 55.0257L24.8752 62.6004C24.8215 62.705 24.7375 62.7931 24.6329 62.8547C24.5282 62.9164 24.4072 62.9489 24.2837 62.9486ZM21.6855 62.9486C21.587 62.9488 21.4897 62.9278 21.4012 62.8872C21.3235 62.8521 21.254 62.803 21.1966 62.7426C21.1392 62.6822 21.0951 62.6118 21.0667 62.5353C21.0383 62.4588 21.0262 62.3778 21.0312 62.297C21.0361 62.2161 21.058 62.137 21.0955 62.0641L24.9797 54.4893C25.1367 54.1833 25.5288 54.0554 25.8556 54.2014C26.0123 54.2727 26.1325 54.3995 26.1898 54.554C26.2471 54.7086 26.2368 54.8782 26.1613 55.0257L22.2771 62.6004C22.2234 62.705 22.1394 62.7931 22.0347 62.8548C21.93 62.9164 21.809 62.9489 21.6855 62.9486ZM75.4612 67.8851H28.2211C28.1349 67.8851 28.0496 67.8692 27.9699 67.8382C27.8903 67.8072 27.818 67.7617 27.757 67.7044C27.6961 67.6471 27.6478 67.5791 27.6148 67.5042C27.5819 67.4293 27.5649 67.3491 27.565 67.268C27.565 66.9269 27.8583 66.6508 28.2211 66.6508H75.4612C75.5474 66.6508 75.6328 66.6667 75.7124 66.6977C75.792 66.7287 75.8644 66.7742 75.9253 66.8315C75.9862 66.8889 76.0346 66.9569 76.0675 67.0318C76.1004 67.1067 76.1174 67.187 76.1173 67.268C76.1173 67.3491 76.1004 67.4293 76.0675 67.5042C76.0345 67.5791 75.9862 67.6471 75.9252 67.7044C75.8643 67.7617 75.792 67.8072 75.7123 67.8382C75.6327 67.8692 75.5474 67.8851 75.4612 67.8851ZM75.4612 65.4168H28.2211C28.1349 65.4168 28.0495 65.4009 27.9699 65.3699C27.8903 65.3389 27.8179 65.2935 27.757 65.2362C27.6961 65.1789 27.6477 65.1108 27.6148 65.0359C27.5818 64.9611 27.5649 64.8808 27.565 64.7997C27.5649 64.7187 27.5819 64.6384 27.6148 64.5636C27.6478 64.4887 27.6961 64.4206 27.757 64.3633C27.818 64.306 27.8903 64.2606 27.9699 64.2296C28.0496 64.1986 28.1349 64.1827 28.2211 64.1827H75.4612C75.5474 64.1827 75.6327 64.1986 75.7123 64.2296C75.792 64.2606 75.8643 64.306 75.9252 64.3633C75.9862 64.4206 76.0345 64.4887 76.0675 64.5636C76.1004 64.6384 76.1173 64.7187 76.1173 64.7997C76.1174 64.8808 76.1004 64.9611 76.0675 65.0359C76.0345 65.1108 75.9862 65.1789 75.9253 65.2362C75.8644 65.2935 75.792 65.3389 75.7124 65.3699C75.6327 65.4009 75.5474 65.4168 75.4612 65.4168Z" fill="url(#paint3_linear_16_65)"/>
<path d="M28.2214 67.8851C24.2418 67.8851 21.0042 65.3938 21.0042 62.3315C21.0041 62.2504 21.021 62.1702 21.054 62.0953C21.087 62.0204 21.1353 61.9524 21.1962 61.8951C21.2572 61.8377 21.3295 61.7923 21.4091 61.7613C21.4887 61.7303 21.5741 61.7144 21.6602 61.7144C21.7464 61.7144 21.8317 61.7303 21.9114 61.7613C21.991 61.7923 22.0633 61.8377 22.1243 61.8951C22.1852 61.9524 22.2335 62.0204 22.2665 62.0953C22.2994 62.1702 22.3164 62.2504 22.3163 62.3315C22.3163 64.713 24.9653 66.6508 28.2214 66.6508C28.3076 66.6508 28.393 66.6667 28.4726 66.6977C28.5522 66.7287 28.6246 66.7742 28.6855 66.8315C28.7464 66.8888 28.7948 66.9569 28.8277 67.0318C28.8607 67.1067 28.8776 67.187 28.8775 67.268C28.8776 67.3491 28.8606 67.4293 28.8277 67.5042C28.7947 67.5791 28.7464 67.6471 28.6854 67.7044C28.6245 67.7617 28.5522 67.8072 28.4725 67.8382C28.3929 67.8692 28.3076 67.8851 28.2214 67.8851Z" fill="url(#paint4_linear_16_65)"/>
<path d="M28.2214 65.4168C26.0532 65.4168 23.6287 64.0971 23.6287 62.3315C23.6286 62.2504 23.6456 62.1702 23.6785 62.0953C23.7115 62.0204 23.7598 61.9524 23.8207 61.8951C23.8817 61.8378 23.954 61.7923 24.0336 61.7613C24.1132 61.7303 24.1986 61.7144 24.2847 61.7144C24.3709 61.7144 24.4563 61.7303 24.5359 61.7613C24.6155 61.7923 24.6878 61.8378 24.7488 61.8951C24.8097 61.9524 24.858 62.0204 24.891 62.0953C24.9239 62.1702 24.9409 62.2504 24.9408 62.3315C24.9408 63.2318 26.6272 64.1827 28.2214 64.1827C28.3076 64.1827 28.3929 64.1986 28.4726 64.2296C28.5522 64.2606 28.6245 64.306 28.6854 64.3633C28.7464 64.4207 28.7947 64.4887 28.8277 64.5636C28.8606 64.6385 28.8776 64.7187 28.8775 64.7997C28.8776 64.8808 28.8606 64.961 28.8277 65.0359C28.7947 65.1108 28.7464 65.1788 28.6854 65.2361C28.6245 65.2934 28.5522 65.3389 28.4726 65.3699C28.3929 65.4009 28.3076 65.4168 28.2214 65.4168ZM75.4616 67.8851C75.3754 67.8851 75.2901 67.8692 75.2105 67.8382C75.1308 67.8072 75.0585 67.7617 74.9976 67.7044C74.9366 67.6471 74.8883 67.5791 74.8554 67.5042C74.8224 67.4293 74.8055 67.3491 74.8055 67.268C74.8055 66.9269 75.0988 66.6508 75.4616 66.6508C75.6355 66.6508 75.8024 66.5858 75.9254 66.4701C76.0484 66.3545 76.1176 66.1976 76.1177 66.034C76.1177 65.6941 75.823 65.4168 75.4616 65.4168C75.3754 65.4168 75.2901 65.4009 75.2104 65.3699C75.1308 65.3389 75.0585 65.2935 74.9975 65.2362C74.9366 65.1789 74.8883 65.1108 74.8553 65.0359C74.8224 64.9611 74.8054 64.8808 74.8055 64.7997C74.8055 64.7187 74.8224 64.6385 74.8554 64.5636C74.8883 64.4887 74.9366 64.4207 74.9976 64.3633C75.0585 64.306 75.1308 64.2606 75.2105 64.2296C75.2901 64.1986 75.3754 64.1827 75.4616 64.1827C76.5469 64.1827 77.4298 65.0131 77.4298 66.034C77.4298 67.0546 76.5469 67.8851 75.4616 67.8851ZM70.2127 48.1391C70.1266 48.1391 70.0412 48.1232 69.9616 48.0922C69.882 48.0612 69.8096 48.0157 69.7487 47.9584C69.6878 47.9011 69.6395 47.8331 69.6065 47.7582C69.5735 47.6833 69.5566 47.6031 69.5566 47.522V25.3079C69.5566 25.2269 69.5735 25.1466 69.6065 25.0717C69.6395 24.9969 69.6878 24.9288 69.7487 24.8715C69.8096 24.8142 69.882 24.7688 69.9616 24.7378C70.0412 24.7068 70.1266 24.6908 70.2127 24.6909C70.2989 24.6908 70.3842 24.7068 70.4639 24.7378C70.5435 24.7688 70.6158 24.8142 70.6768 24.8715C70.7377 24.9288 70.786 24.9969 70.819 25.0717C70.8519 25.1466 70.8689 25.2269 70.8688 25.3079V47.5222C70.8688 47.6032 70.8519 47.6835 70.8189 47.7583C70.786 47.8332 70.7376 47.9012 70.6767 47.9585C70.6158 48.0158 70.5434 48.0612 70.4638 48.0922C70.3842 48.1232 70.2989 48.1391 70.2127 48.1391ZM61.027 48.1391C60.9409 48.1391 60.8555 48.1232 60.7759 48.0922C60.6963 48.0612 60.624 48.0157 60.5631 47.9584C60.5022 47.9011 60.4538 47.8331 60.4209 47.7582C60.388 47.6833 60.3711 47.6031 60.3711 47.522V25.3079C60.3711 25.2269 60.388 25.1466 60.4209 25.0718C60.4538 24.9969 60.5022 24.9288 60.5631 24.8715C60.624 24.8142 60.6963 24.7688 60.7759 24.7378C60.8555 24.7068 60.9409 24.6908 61.027 24.6909C61.3898 24.6909 61.6833 24.9669 61.6833 25.3079V47.5222C61.6833 47.6032 61.6663 47.6835 61.6334 47.7584C61.6004 47.8332 61.5521 47.9013 61.4911 47.9586C61.4302 48.0158 61.3578 48.0613 61.2782 48.0923C61.1985 48.1232 61.1132 48.1391 61.027 48.1391ZM51.8413 48.1391C51.7552 48.1391 51.6698 48.1232 51.5902 48.0922C51.5106 48.0612 51.4383 48.0157 51.3773 47.9584C51.3164 47.9011 51.2681 47.8331 51.2351 47.7582C51.2022 47.6833 51.1852 47.6031 51.1853 47.522V25.3079C51.1852 25.2269 51.2022 25.1466 51.2351 25.0717C51.2681 24.9969 51.3164 24.9288 51.3773 24.8715C51.4383 24.8142 51.5106 24.7688 51.5902 24.7378C51.6698 24.7068 51.7552 24.6908 51.8413 24.6909C52.2041 24.6909 52.4976 24.9669 52.4976 25.3079V47.5222C52.4976 47.6032 52.4807 47.6835 52.4477 47.7584C52.4147 47.8332 52.3664 47.9013 52.3054 47.9586C52.2445 48.0158 52.1721 48.0613 52.0925 48.0923C52.0129 48.1232 51.9275 48.1391 51.8413 48.1391ZM42.6558 48.1391C42.5696 48.1391 42.4843 48.1232 42.4047 48.0922C42.3251 48.0612 42.2527 48.0157 42.1918 47.9584C42.1309 47.9011 42.0825 47.8331 42.0496 47.7582C42.0166 47.6833 41.9997 47.6031 41.9997 47.522V25.3079C41.9997 25.2269 42.0166 25.1466 42.0496 25.0717C42.0825 24.9969 42.1309 24.9288 42.1918 24.8715C42.2527 24.8142 42.3251 24.7688 42.4047 24.7378C42.4843 24.7068 42.5696 24.6908 42.6558 24.6909C43.0186 24.6909 43.3121 24.9669 43.3121 25.3079V47.5222C43.3121 47.6032 43.2951 47.6835 43.2621 47.7584C43.2292 47.8332 43.1808 47.9013 43.1199 47.9586C43.0589 48.0158 42.9866 48.0613 42.9069 48.0923C42.8273 48.1232 42.742 48.1391 42.6558 48.1391ZM33.4703 48.1391C33.3841 48.1391 33.2988 48.1232 33.2192 48.0922C33.1395 48.0612 33.0672 48.0157 33.0063 47.9584C32.9453 47.9011 32.897 47.8331 32.864 47.7582C32.8311 47.6833 32.8141 47.6031 32.8142 47.522V25.3079C32.8141 25.2269 32.8311 25.1466 32.864 25.0717C32.897 24.9969 32.9453 24.9288 33.0063 24.8715C33.0672 24.8142 33.1395 24.7688 33.2192 24.7378C33.2988 24.7068 33.3841 24.6908 33.4703 24.6909C33.5565 24.6908 33.6418 24.7068 33.7214 24.7378C33.801 24.7688 33.8734 24.8142 33.9343 24.8715C33.9952 24.9288 34.0436 24.9969 34.0765 25.0717C34.1095 25.1466 34.1264 25.2269 34.1264 25.3079V47.5222C34.1264 47.6032 34.1095 47.6835 34.0765 47.7584C34.0436 47.8332 33.9952 47.9012 33.9343 47.9585C33.8734 48.0158 33.801 48.0613 33.7214 48.0922C33.6418 48.1232 33.5564 48.1391 33.4703 48.1391ZM32.8142 77.7579C29.92 77.7579 27.5653 75.5439 27.5653 72.8215C27.5653 72.3419 27.6383 71.8669 27.7831 71.4114C27.8329 71.2547 27.9467 71.1231 28.0997 71.0453C28.2526 70.9675 28.4321 70.95 28.5988 70.9966C28.6814 71.0196 28.7583 71.0576 28.8253 71.1086C28.8922 71.1596 28.9477 71.2225 28.9888 71.2938C29.0298 71.365 29.0554 71.4431 29.0643 71.5237C29.0731 71.6043 29.065 71.6857 29.0403 71.7633C28.9322 72.1068 28.8774 72.4631 28.8775 72.8213C28.8775 74.8628 30.6435 76.5237 32.8142 76.5237C34.9849 76.5237 36.7509 74.8628 36.7509 72.8213C36.7509 72.4609 36.6957 72.1054 36.5881 71.7633C36.5634 71.6857 36.5553 71.6043 36.5641 71.5237C36.5729 71.4432 36.5986 71.365 36.6396 71.2938C36.6806 71.2226 36.7361 71.1597 36.803 71.1087C36.8699 71.0577 36.9469 71.0196 37.0295 70.9966C37.112 70.9733 37.1986 70.9655 37.2843 70.9737C37.37 70.9819 37.4532 71.006 37.529 71.0445C37.6048 71.083 37.6717 71.1353 37.726 71.1983C37.7803 71.2612 37.8208 71.3336 37.8452 71.4114C37.9902 71.869 38.0636 72.344 38.063 72.8215C38.063 75.5441 35.7083 77.7579 32.8142 77.7579Z" fill="url(#paint5_linear_16_65)"/>
<path d="M32.8141 74.6727C31.3385 74.6727 29.8771 71.4234 28.9114 68.6973C28.8841 68.6205 28.8732 68.5394 28.8793 68.4586C28.8854 68.3779 28.9083 68.299 28.9468 68.2266C28.9853 68.1542 29.0386 68.0896 29.1036 68.0366C29.1687 67.9835 29.2442 67.9431 29.3258 67.9175C29.4075 67.8915 29.4938 67.881 29.5797 67.8865C29.6657 67.8921 29.7497 67.9135 29.8268 67.9497C29.9039 67.9859 29.9727 68.036 30.0291 68.0973C30.0856 68.1585 30.1286 68.2297 30.1557 68.3066C31.0598 70.8568 32.3247 73.2577 32.8615 73.4444C33.3035 73.2577 34.5684 70.8568 35.4724 68.3066C35.4995 68.2297 35.5425 68.1585 35.599 68.0973C35.6554 68.036 35.7241 67.9859 35.8013 67.9497C35.8784 67.9135 35.9624 67.8921 36.0483 67.8865C36.1343 67.881 36.2206 67.8915 36.3023 67.9175C36.384 67.943 36.4595 67.9835 36.5246 68.0365C36.5897 68.0895 36.643 68.1541 36.6815 68.2265C36.72 68.299 36.7429 68.3778 36.749 68.4586C36.7551 68.5394 36.7441 68.6205 36.7168 68.6973C35.7512 71.4234 34.2897 74.6727 32.8141 74.6727ZM66.9321 77.7579C64.0385 77.7579 61.6832 75.5439 61.6832 72.8215C61.6832 72.3407 61.7575 71.8658 61.9011 71.4103C61.9517 71.2538 62.066 71.1225 62.2191 71.0451C62.3723 70.9676 62.5518 70.9502 62.7185 70.9968C62.8849 71.0441 63.0247 71.1513 63.1073 71.2952C63.19 71.4391 63.2087 71.6079 63.1595 71.7647C63.0505 72.1057 62.9954 72.4612 62.9954 72.8217C62.9954 74.8632 64.7614 76.524 66.9321 76.524C69.1028 76.524 70.8688 74.8632 70.8688 72.8217C70.8688 72.4612 70.8149 72.1057 70.706 71.7636C70.657 71.6067 70.676 71.4378 70.7588 71.294C70.8416 71.1501 70.9816 71.0429 71.1482 70.9957C71.2309 70.9727 71.3176 70.9652 71.4034 70.9737C71.4892 70.9822 71.5723 71.0065 71.6481 71.0452C71.7239 71.084 71.7909 71.1363 71.8451 71.1994C71.8994 71.2625 71.9399 71.335 71.9644 71.4128C72.1082 71.8702 72.1811 72.3447 72.1809 72.8217C72.1809 75.5441 69.8256 77.7579 66.9321 77.7579Z" fill="url(#paint6_linear_16_65)"/>
<path d="M66.9321 74.6727C65.4559 74.6727 63.9951 71.4234 63.0287 68.6973C62.974 68.5421 62.987 68.3728 63.0648 68.2266C63.1427 68.0804 63.279 67.9692 63.444 67.9175C63.5257 67.8917 63.612 67.8813 63.6979 67.8868C63.7839 67.8924 63.8678 67.9139 63.945 67.9501C64.0221 67.9862 64.0909 68.0363 64.1474 68.0975C64.2039 68.1587 64.247 68.2297 64.2743 68.3066C65.1778 70.8568 66.4427 73.2577 66.9795 73.4444C67.4215 73.2577 68.6863 70.8568 69.5899 68.3066C69.6171 68.2297 69.6602 68.1586 69.7167 68.0974C69.7732 68.0362 69.842 67.9861 69.9192 67.9499C69.9963 67.9137 70.0803 67.8923 70.1663 67.8867C70.2523 67.8811 70.3386 67.8916 70.4203 67.9175C70.5853 67.9691 70.7217 68.0803 70.7996 68.2265C70.8775 68.3728 70.8904 68.5421 70.8355 68.6973C69.8692 71.4234 68.4084 74.6727 66.9321 74.6727Z" fill="url(#paint7_linear_16_65)"/>
<defs>
<linearGradient id="paint0_linear_16_65" x1="47.2488" y1="3.71124" x2="47.2488" y2="55.5438" gradientUnits="userSpaceOnUse">
<stop stop-color="white"/>
<stop offset="0.27" stop-color="#F2F2F2"/>
<stop offset="1" stop-color="#717171"/>
</linearGradient>
<linearGradient id="paint1_linear_16_65" x1="15.0727" y1="1.25009" x2="15.0727" y2="55.3739" gradientUnits="userSpaceOnUse">
<stop stop-color="white"/>
<stop offset="0.27" stop-color="#F2F2F2"/>
<stop offset="1" stop-color="#717171"/>
</linearGradient>
<linearGradient id="paint2_linear_16_65" x1="7.5019" y1="1.24255" x2="7.5019" y2="2.47677" gradientUnits="userSpaceOnUse">
<stop stop-color="white"/>
<stop offset="0.27" stop-color="#F2F2F2"/>
<stop offset="1" stop-color="#717171"/>
</linearGradient>
<linearGradient id="paint3_linear_16_65" x1="39.3749" y1="1.24255" x2="39.3749" y2="67.8851" gradientUnits="userSpaceOnUse">
<stop stop-color="white"/>
<stop offset="0.27" stop-color="#F2F2F2"/>
<stop offset="1" stop-color="#717171"/>
</linearGradient>
<linearGradient id="paint4_linear_16_65" x1="24.9408" y1="61.7144" x2="24.9408" y2="67.8851" gradientUnits="userSpaceOnUse">
<stop stop-color="white"/>
<stop offset="0.27" stop-color="#F2F2F2"/>
<stop offset="1" stop-color="#717171"/>
</linearGradient>
<linearGradient id="paint5_linear_16_65" x1="50.5293" y1="24.6909" x2="50.5293" y2="77.7579" gradientUnits="userSpaceOnUse">
<stop stop-color="white"/>
<stop offset="0.27" stop-color="#F2F2F2"/>
<stop offset="1" stop-color="#717171"/>
</linearGradient>
<linearGradient id="paint6_linear_16_65" x1="50.5293" y1="67.8851" x2="50.5293" y2="77.7579" gradientUnits="userSpaceOnUse">
<stop stop-color="white"/>
<stop offset="0.27" stop-color="#F2F2F2"/>
<stop offset="1" stop-color="#717171"/>
</linearGradient>
<linearGradient id="paint7_linear_16_65" x1="66.9322" y1="67.8853" x2="66.9322" y2="74.6727" gradientUnits="userSpaceOnUse">
<stop stop-color="white"/>
<stop offset="0.27" stop-color="#F2F2F2"/>
<stop offset="1" stop-color="#717171"/>
</linearGradient>
</defs>
</svg>
