<svg width="128" height="128" viewBox="0 0 128 128" fill="none" xmlns="http://www.w3.org/2000/svg">
<g clip-path="url(#clip0_13_2)">
<path d="M76.2551 109.617C77.3832 109.617 78.2976 108.703 78.2976 107.574C78.2976 106.446 77.3832 105.532 76.2551 105.532C75.1271 105.532 74.2126 106.446 74.2126 107.574C74.2126 108.703 75.1271 109.617 76.2551 109.617Z" fill="url(#paint0_linear_13_2)"/>
<path d="M84.4256 117.787C85.5536 117.787 86.4681 116.873 86.4681 115.745C86.4681 114.617 85.5536 113.702 84.4256 113.702C83.2975 113.702 82.3831 114.617 82.3831 115.745C82.3831 116.873 83.2975 117.787 84.4256 117.787Z" fill="url(#paint1_linear_13_2)"/>
<path d="M97.3617 123.915H96.681V110.979C96.681 103.037 90.7363 96.4613 83.064 95.4568V93.2768C83.064 88.3963 79.0932 84.4258 74.213 84.4258H25.1915C20.3112 84.4258 16.3405 88.3963 16.3405 93.2768V95.4568C8.66825 96.4613 2.7235 103.037 2.7235 110.979V123.915H2.0425C0.9145 123.915 0 124.829 0 125.958C0 127.086 0.9145 128 2.0425 128H97.3617C98.4897 128 99.4043 127.086 99.4043 125.958C99.4043 124.829 98.4897 123.915 97.3617 123.915ZM92.5957 123.915H6.8085V110.979C6.8085 104.597 12.0007 99.4043 18.383 99.4043H26.5532C27.6812 99.4043 28.5958 98.49 28.5958 97.3618C28.5958 96.2335 27.6812 95.3193 26.5532 95.3193H20.4255V93.2768C20.4255 90.649 22.5637 88.5108 25.1915 88.5108H74.2128C76.8405 88.5108 78.9788 90.649 78.9788 93.2768V95.3193H34.7235C33.5955 95.3193 32.681 96.2335 32.681 97.3618C32.681 98.49 33.5955 99.4043 34.7235 99.4043H81.0212C87.4035 99.4043 92.5957 104.597 92.5957 110.979V123.915Z" fill="url(#paint2_linear_13_2)"/>
<path d="M117.787 29.9575C114.565 29.9575 111.535 31.4967 109.62 34.0425H70.8086V25.8722H71.4894C72.6174 25.8722 73.5319 24.958 73.5319 23.8298C73.5319 22.7015 72.6174 21.7873 71.4894 21.7873H70.8086V17.4618C74.7071 16.537 77.6171 13.0285 77.6171 8.85125C77.6171 3.9705 73.6464 0 68.7661 0H30.6384C25.7581 0 21.7874 3.9705 21.7874 8.851C21.7874 13.0285 24.6974 16.5368 28.5959 17.4615V21.787H27.9151C26.7871 21.787 25.8726 22.7013 25.8726 23.8295C25.8726 24.9578 26.7871 25.872 27.9151 25.872H28.5959V54.4678H27.9151C26.7871 54.4678 25.8726 55.382 25.8726 56.5103C25.8726 57.6385 26.7871 58.5527 27.9151 58.5527H28.5959V62.8783C24.6974 63.803 21.7874 67.3115 21.7874 71.4887C21.7874 76.3692 25.7581 80.3398 30.6384 80.3398H68.7661C73.6464 80.3398 77.6171 76.3692 77.6171 71.4887C77.6171 67.3112 74.7071 63.803 70.8086 62.8783V58.5527H71.4894C72.6174 58.5527 73.5319 57.6385 73.5319 56.5103C73.5319 55.382 72.6174 54.4678 71.4894 54.4678H70.8086V38.1273H110.713C111.442 38.1273 112.116 37.7385 112.481 37.108C113.575 35.2168 115.608 34.0423 117.787 34.0423C121.166 34.0423 123.915 36.7912 123.915 40.17C123.915 43.5487 121.166 46.2977 117.787 46.2977C115.608 46.2977 113.575 45.1232 112.481 43.232C112.116 42.6012 111.442 42.2127 110.713 42.2127H76.9364C75.8084 42.2127 74.8939 43.127 74.8939 44.2552C74.8939 45.3835 75.8084 46.2977 76.9364 46.2977H109.62C111.535 48.8435 114.565 50.3828 117.787 50.3828C123.419 50.3828 128 45.8015 128 40.17C128 34.5385 123.419 29.9575 117.787 29.9575ZM73.5321 71.4893C73.5321 74.117 71.3939 76.2552 68.7661 76.2552H30.6384C28.0106 76.2552 25.8724 74.117 25.8724 71.4893C25.8724 68.8615 28.0106 66.7233 30.6384 66.7233H68.7661C71.3939 66.7235 73.5321 68.8615 73.5321 71.4893ZM66.7236 25.8722V54.468H32.6811V25.8722H66.7236ZM32.6809 21.7873V17.7022H66.7234V21.7873H32.6809ZM66.7236 58.5532V62.6382H32.6811V58.5532H66.7236ZM68.7661 13.617H30.6384C28.0106 13.617 25.8724 11.4788 25.8724 8.851C25.8724 6.22325 28.0106 4.085 30.6384 4.085H68.7661C71.3939 4.085 73.5321 6.22325 73.5321 8.851C73.5321 11.479 71.3939 13.617 68.7661 13.617Z" fill="url(#paint3_linear_13_2)"/>
</g>
<defs>
<linearGradient id="paint0_linear_13_2" x1="76.2551" y1="105.532" x2="76.2551" y2="109.617" gradientUnits="userSpaceOnUse">
<stop stop-color="white" stop-opacity="0.945098"/>
<stop offset="0.0001" stop-color="#F2F2F2"/>
<stop offset="0.185" stop-color="#E2E2E2"/>
<stop offset="1" stop-color="#717171"/>
</linearGradient>
<linearGradient id="paint1_linear_13_2" x1="84.4256" y1="113.702" x2="84.4256" y2="117.787" gradientUnits="userSpaceOnUse">
<stop stop-color="white" stop-opacity="0.945098"/>
<stop offset="0.0001" stop-color="#F2F2F2"/>
<stop offset="0.185" stop-color="#E2E2E2"/>
<stop offset="1" stop-color="#717171"/>
</linearGradient>
<linearGradient id="paint2_linear_13_2" x1="49.7021" y1="84.4258" x2="49.7021" y2="128" gradientUnits="userSpaceOnUse">
<stop stop-color="white" stop-opacity="0.945098"/>
<stop offset="0.0001" stop-color="#F2F2F2"/>
<stop offset="0.185" stop-color="#E2E2E2"/>
<stop offset="1" stop-color="#717171"/>
</linearGradient>
<linearGradient id="paint3_linear_13_2" x1="74.8937" y1="0" x2="74.8937" y2="80.3398" gradientUnits="userSpaceOnUse">
<stop stop-color="white" stop-opacity="0.945098"/>
<stop offset="0.0001" stop-color="#F2F2F2"/>
<stop offset="0.185" stop-color="#E2E2E2"/>
<stop offset="1" stop-color="#717171"/>
</linearGradient>
<clipPath id="clip0_13_2">
<rect width="128" height="128" fill="white"/>
</clipPath>
</defs>
</svg>
