<svg width="800" height="707" viewBox="0 0 800 707" fill="none" xmlns="http://www.w3.org/2000/svg">
<path d="M765.065 5.41293C728.965 -14.0256 688.699 23.463 665.095 45.6784C610.948 98.44 565.128 159.532 513.753 215.071C456.826 276.163 404.064 337.256 345.749 396.962C312.426 430.285 276.326 466.385 254.11 508.039C204.125 459.44 161.083 406.679 105.545 363.639C65.2791 333.093 -1.36711 310.877 0.0213534 384.466C2.79828 480.272 87.4946 583.018 149.975 648.274C176.356 676.043 211.068 705.201 251.333 706.589C299.929 709.366 349.914 651.051 379.072 619.116C430.447 563.577 472.101 501.094 519.307 444.17C580.399 369.193 642.88 295.602 702.584 219.236C740.072 172.029 858.092 55.3953 765.065 5.41293ZM61.1115 378.912C59.723 378.912 58.3346 378.912 55.5576 380.298C50.0038 378.912 45.8384 377.521 40.2845 374.744C44.4499 371.967 51.3922 373.356 61.1115 378.912Z" fill="url(#paint0_linear_29_4)"/>
<defs>
<linearGradient id="paint0_linear_29_4" x1="400" y1="0" x2="400" y2="706.685" gradientUnits="userSpaceOnUse">
<stop stop-color="white"/>
<stop offset="0.26" stop-color="#C0C0C0"/>
<stop offset="0.405" stop-color="#989898"/>
<stop offset="0.69" stop-color="#858585"/>
<stop offset="1" stop-color="white"/>
</linearGradient>
</defs>
</svg>
