<svg width="128" height="128" viewBox="0 0 128 128" fill="none" xmlns="http://www.w3.org/2000/svg">
<path d="M39.0972 124.006C40.159 126.337 42.9331 128 46.188 128C50.3597 128 53.7415 125.269 53.7415 121.9V120.264L40.7687 123.714C40.2235 123.858 39.6641 123.952 39.0972 124.006Z" fill="url(#paint0_linear_14_18)"/>
<path d="M55.3707 21.0701C62.5756 21.0701 68.4164 16.3534 68.4164 10.535C68.4164 4.71669 62.5756 0 55.3707 0C48.1657 0 42.325 4.71669 42.325 10.535C42.325 16.3534 48.1657 21.0701 55.3707 21.0701Z" fill="url(#paint1_linear_14_18)"/>
<path d="M21.1853 88.7177C20.4455 86.1217 21.6041 83.5351 23.9875 81.9278L22.8368 79.1055L21.6443 82.0307L20.4027 81.7006C18.4255 81.1749 16.2785 81.9547 15.4536 83.498L0.330174 111.8C-0.605288 113.55 0.522132 115.574 2.76428 116.17L18.2451 120.286C20.4878 120.882 22.8828 119.795 23.4185 117.938L26.5146 107.201L21.1906 88.7352C21.188 88.7292 21.1874 88.7237 21.1853 88.7177Z" fill="url(#paint2_linear_14_18)"/>
<path d="M126.99 102.206L101.682 79.1319C100.301 77.8738 97.9598 77.674 96.2851 78.6719L95.2328 79.2988L92.9684 76.8203L92.9663 79.7916C95.852 80.7179 97.953 82.8834 98.2533 85.5362C98.2539 85.5421 98.2555 85.5481 98.256 85.5541L100.336 104.439L107.428 113.859C108.654 115.489 111.351 115.917 113.25 114.786L126.366 106.973C128.266 105.84 128.555 103.633 126.99 102.206Z" fill="url(#paint3_linear_14_18)"/>
<path d="M93.8056 85.8732C93.621 84.1987 91.8849 82.9151 89.803 82.9138L88.4958 82.9134L88.499 78.523C91.1467 77.7223 92.8849 75.5495 92.5433 73.1795C92.3196 71.6289 87.4144 37.6298 87.1902 36.0767C86.939 29.6245 80.341 24.4275 72.301 24.4275C70.4788 24.4275 48.3228 24.4275 38.4409 24.4275C30.2687 24.4275 23.5856 29.7971 23.5449 36.3969C23.5449 36.4093 23.5449 36.4221 23.5449 36.4345C23.5492 37.9061 23.6523 72.4061 23.6565 73.7794C23.6628 75.7955 25.1245 77.5293 27.2328 78.347L29.4422 83.7657L28.2006 84.0958C26.2239 84.6215 25.07 86.2784 25.5422 87.9161L34.1983 117.937C34.7361 119.801 37.1385 120.879 39.3716 120.285L54.8525 116.169C57.083 115.576 58.2279 113.56 57.2866 111.799L42.1632 83.4971C41.3383 81.9534 39.1908 81.174 37.2141 81.6997L35.9724 82.0298L34.1459 77.5502C35.4357 76.6167 36.2501 75.2642 36.2458 73.7551C36.2416 72.348 36.139 37.8771 36.1343 36.4358C36.139 36.1019 37.506 35.8328 37.919 35.8311C38.3325 35.8294 38.6715 36.0959 38.6805 36.4298L38.6313 73.1423H38.6345V77.0219L39.0094 77.9414C42.1828 78.1032 44.9929 79.6867 46.2652 82.0674L53.7415 96.058V73.1423H57.0031V102.162L61.3891 110.369C63.2283 113.81 61.3008 117.838 57.0031 119.362V121.899C57.0031 125.268 60.3849 127.999 64.5566 127.999C68.4772 127.999 71.6998 125.587 72.0731 122.5C69.4682 121.055 68.1631 118.626 68.4291 116.24L72.3159 83.3297C72.3159 83.3297 71.741 78.3534 71.6347 36.6088C71.6332 36.0493 72.1667 35.5843 72.8568 35.542C73.5469 35.4997 74.5062 35.8947 74.6077 36.4482C74.6839 36.8628 76.7589 51.6435 80.038 74.3564C80.1956 75.4496 80.7752 76.4181 81.625 77.1757L81.6208 82.9104C81.6202 82.9104 80.3109 82.9099 80.3109 82.9099C78.2306 82.9099 76.4934 84.1919 76.3068 85.8655L72.8796 116.565C72.8669 116.679 72.8616 116.792 72.8637 116.905C72.896 118.678 74.687 120.103 76.8816 120.104L93.18 120.111C93.181 120.111 93.1816 120.111 93.1826 120.111C95.5411 120.111 97.3962 118.476 97.1868 116.577L93.8056 85.8732Z" fill="url(#paint4_linear_14_18)"/>
<defs>
<linearGradient id="paint0_linear_14_18" x1="46.4193" y1="120.264" x2="46.4193" y2="128" gradientUnits="userSpaceOnUse">
<stop stop-color="white"/>
<stop offset="0.155" stop-color="#A4A2A2"/>
<stop offset="0.501231" stop-color="#5F5F5F"/>
<stop offset="1" stop-color="white"/>
</linearGradient>
<linearGradient id="paint1_linear_14_18" x1="55.3707" y1="0" x2="55.3707" y2="21.0701" gradientUnits="userSpaceOnUse">
<stop stop-color="white"/>
<stop offset="0.155" stop-color="#A4A2A2"/>
<stop offset="0.501231" stop-color="#5F5F5F"/>
<stop offset="1" stop-color="white"/>
</linearGradient>
<linearGradient id="paint2_linear_14_18" x1="13.2573" y1="79.1055" x2="13.2573" y2="120.45" gradientUnits="userSpaceOnUse">
<stop stop-color="white"/>
<stop offset="0.155" stop-color="#A4A2A2"/>
<stop offset="0.501231" stop-color="#5F5F5F"/>
<stop offset="1" stop-color="white"/>
</linearGradient>
<linearGradient id="paint3_linear_14_18" x1="110.483" y1="76.8203" x2="110.483" y2="115.42" gradientUnits="userSpaceOnUse">
<stop stop-color="white"/>
<stop offset="0.155" stop-color="#A4A2A2"/>
<stop offset="0.501231" stop-color="#5F5F5F"/>
<stop offset="1" stop-color="white"/>
</linearGradient>
<linearGradient id="paint4_linear_14_18" x1="60.3739" y1="24.4275" x2="60.3739" y2="127.999" gradientUnits="userSpaceOnUse">
<stop stop-color="white"/>
<stop offset="0.155" stop-color="#A4A2A2"/>
<stop offset="0.501231" stop-color="#5F5F5F"/>
<stop offset="1" stop-color="white"/>
</linearGradient>
</defs>
</svg>
