<?xml version="1.0" encoding="utf-8"?>
<!-- Generator: Adobe Illustrator 16.0.0, SVG Export Plug-In . SVG Version: 6.00 Build 0)  -->
<!DOCTYPE svg PUBLIC "-//W3C//DTD SVG 1.1//EN" "http://www.w3.org/Graphics/SVG/1.1/DTD/svg11.dtd">
<svg version="1.1" id="Layer_1" xmlns="http://www.w3.org/2000/svg" xmlns:xlink="http://www.w3.org/1999/xlink" x="0px" y="0px"
	 width="128px" height="128px" viewBox="0 0 128 128" enable-background="new 0 0 128 128" xml:space="preserve">
<g>
	<g>
		<g>
			<g>
				<path fill="#282D33" d="M121.381,30.625h-21.377V19.229c0-5.866,4.795-10.638,10.689-10.638c5.894,0,10.688,4.772,10.688,10.638
					V30.625z M104.004,26.625h13.377v-7.396c0-3.66-3-6.638-6.688-6.638c-3.688,0-6.689,2.978-6.689,6.638V26.625z"/>
			</g>
			<g>
				<path fill="#282D33" d="M104.004,49.414h-4V19.228c0-2.466,0.847-4.752,2.279-6.568c-5.574-0.001-12.811-0.003-17.168-0.006
					l-3.639-0.002v-4l3.641,0.002c7.024,0.005,21.497,0.012,24.559-0.002l0.238,3.987c-3.369,0.388-5.91,3.22-5.91,6.589V49.414z"/>
			</g>
			<g>
				<polygon fill="#282D33" points="19.133,115.332 19.103,113.983 19.133,113.982 19.133,104.036 23.133,104.036 23.133,115.286 
									"/>
			</g>
			<g>
				<path fill="#282D33" d="M94.415,127.83l-4.806-0.001c-48.34-0.008-73.971-0.009-76.179,0.001l-0.017-4
					c2.215-0.009,27.853-0.008,76.196-0.001l4.568,0.001c3.329-0.437,5.826-3.244,5.826-6.575l-0.065-3.444h0.065v-5.729h4
					l-0.017,9.729c-0.283,5.171-4.255,9.407-9.459,10.007L94.415,127.83z"/>
			</g>
			<g>
				<path fill="#282D33" d="M12.768,127.83l-0.229-0.013c-5.387-0.621-9.45-5.161-9.45-10.563v-6.343h84.873v6.343
					c0,3.368,2.541,6.2,5.909,6.588l-0.236,3.987c-1.286-0.005-10.437-0.007-22.149-0.007L12.768,127.83z M7.089,114.912v2.343
					c0,3.332,2.486,6.141,5.801,6.575l58.595-0.007c5.743,0,10.87,0,14.758,0.001c-1.434-1.815-2.281-4.103-2.281-6.569v-2.343
					H7.089z"/>
			</g>
			<g>
				<path fill="#282D33" d="M121.381,31.311h-4V19.229c0-3.66-3-6.638-6.688-6.638c-3.688,0-6.689,2.978-6.689,6.638h-4
					c0-5.866,4.795-10.638,10.689-10.638c5.894,0,10.688,4.772,10.688,10.638V31.311z"/>
			</g>
			<g>
				<path fill="#282D33" d="M94.145,127.83c-5.329,0-10.183-5.04-10.183-10.575v-6.991h4v6.991c0,3.38,3.005,6.575,6.183,6.575
					V127.83z"/>
			</g>
		</g>
	</g>
	<g>
		<g>
			<path fill="#282D33" d="M71.048,98.65H3.115C1.397,98.65,0,97.253,0,95.535V3.282C0,1.566,1.397,0.17,3.115,0.17h67.933
				c1.72,0,3.118,1.396,3.118,3.112v92.253C74.166,97.253,72.768,98.65,71.048,98.65z M4,94.65h66.166V4.17H4V94.65z"/>
		</g>
		<g>
			<path fill="#282D33" d="M71.048,88.031H3.115C1.397,88.031,0,86.634,0,84.917V14.521h4v69.51h66.166v-69.51h4v70.396
				C74.166,86.634,72.768,88.031,71.048,88.031z"/>
		</g>
		<g>
			<path fill="#282D33" d="M63.2,30.532H10.965V14.386H63.2V30.532z M14.965,26.532H59.2v-8.146H14.965V26.532z"/>
		</g>
		<g>
			<g>
				<rect x="10.978" y="38.952" fill="#282D33" width="8.832" height="4"/>
			</g>
			<g>
				<rect x="25.438" y="38.952" fill="#282D33" width="8.833" height="4"/>
			</g>
			<g>
				<rect x="39.896" y="38.952" fill="#282D33" width="8.833" height="4"/>
			</g>
			<g>
				<rect x="54.357" y="38.952" fill="#282D33" width="8.832" height="4"/>
			</g>
		</g>
		<g>
			<g>
				<rect x="10.978" y="49.805" fill="#282D33" width="8.832" height="4"/>
			</g>
			<g>
				<rect x="25.438" y="49.805" fill="#282D33" width="8.833" height="4"/>
			</g>
			<g>
				<rect x="39.896" y="49.805" fill="#282D33" width="8.833" height="4"/>
			</g>
			<g>
				<rect x="54.357" y="49.805" fill="#282D33" width="8.832" height="4"/>
			</g>
		</g>
		<g>
			<g>
				<rect x="10.978" y="60.658" fill="#282D33" width="8.832" height="4"/>
			</g>
			<g>
				<rect x="25.438" y="60.658" fill="#282D33" width="8.833" height="4"/>
			</g>
			<g>
				<rect x="39.896" y="60.658" fill="#282D33" width="8.833" height="4"/>
			</g>
			<g>
				<rect x="54.357" y="60.658" fill="#282D33" width="8.832" height="4"/>
			</g>
		</g>
		<g>
			<g>
				<rect x="10.978" y="71.512" fill="#282D33" width="8.832" height="4"/>
			</g>
			<g>
				<rect x="25.438" y="71.512" fill="#282D33" width="8.833" height="4"/>
			</g>
			<g>
				<rect x="39.896" y="71.512" fill="#282D33" width="8.833" height="4"/>
			</g>
			<g>
				<rect x="54.357" y="71.512" fill="#282D33" width="8.832" height="4"/>
			</g>
		</g>
	</g>
	<g>
		<g>
			<path fill="#282D33" d="M101.835,102.581c-12.761,0-23.142-10.327-23.142-23.021c0-12.692,10.382-23.018,23.143-23.018
				s23.143,10.325,23.143,23.018C124.979,92.254,114.597,102.581,101.835,102.581z M101.836,60.543
				c-10.556,0-19.143,8.531-19.143,19.018c0,10.488,8.587,19.021,19.142,19.021c10.556,0,19.144-8.532,19.144-19.021
				C120.979,69.074,112.392,60.543,101.836,60.543z"/>
		</g>
		<g>
			<g>
				<polygon fill="#282D33" points="103.801,88.01 99.801,88.01 99.801,73.555 96.534,76.926 93.661,74.143 100.364,67.226 
					103.801,68.617 				"/>
			</g>
			<g>
				<rect x="97.198" y="85.941" fill="#282D33" width="9.098" height="4"/>
			</g>
		</g>
		<g>
			<rect x="117.521" y="38.269" fill="#282D33" width="4" height="16.856"/>
		</g>
		<g>
			<rect x="111.043" y="44.696" fill="#282D33" width="16.957" height="4"/>
		</g>
	</g>
</g>
</svg>
